<svg xmlns="http://www.w3.org/2000/svg" xmlns:xlink="http://www.w3.org/1999/xlink" viewBox="0 0 155.72 29.91"><defs><style>.cls-1,.cls-2,.cls-3,.cls-4,.cls-5,.cls-6,.cls-7,.cls-8,.cls-9{stroke-miterlimit:10;}.cls-1{fill:url(#linear-gradient);stroke:url(#linear-gradient-2);}.cls-2{fill:url(#linear-gradient-3);stroke:url(#linear-gradient-4);}.cls-3{fill:url(#linear-gradient-5);stroke:url(#linear-gradient-6);}.cls-4{fill:url(#linear-gradient-7);stroke:url(#linear-gradient-8);}.cls-5{fill:url(#linear-gradient-9);stroke:url(#linear-gradient-10);}.cls-6{fill:url(#linear-gradient-11);stroke:url(#linear-gradient-12);}.cls-7{fill:url(#linear-gradient-13);stroke:url(#linear-gradient-14);}.cls-8{fill:url(#linear-gradient-15);stroke:url(#linear-gradient-16);}.cls-9{fill:url(#linear-gradient-17);stroke:url(#linear-gradient-18);}</style><linearGradient id="linear-gradient" x1="5.09" y1="0.57" x2="5.09" y2="29.28" gradientUnits="userSpaceOnUse"><stop offset="0" stop-color="#f6019d"/><stop offset="0.21" stop-color="#cb058b"/><stop offset="1" stop-color="#261447"/></linearGradient><linearGradient id="linear-gradient-2" y1="14.93" x2="10.17" y2="14.93" gradientUnits="userSpaceOnUse"><stop offset="0" stop-color="#f6019d"/><stop offset="0.12" stop-color="#f60699"/><stop offset="0.26" stop-color="#f6158e"/><stop offset="0.42" stop-color="#f72e7c"/><stop offset="0.58" stop-color="#f75163"/><stop offset="0.76" stop-color="#f87e43"/><stop offset="0.94" stop-color="#f9b41d"/><stop offset="1" stop-color="#f9c80e"/></linearGradient><linearGradient id="linear-gradient-3" x1="21.21" y1="0.5" x2="21.21" y2="29.41" xlink:href="#linear-gradient"/><linearGradient id="linear-gradient-4" x1="15.69" y1="14.95" x2="26.73" y2="14.95" xlink:href="#linear-gradient-2"/><linearGradient id="linear-gradient-5" x1="39.52" y1="0.74" x2="39.52" y2="28.88" xlink:href="#linear-gradient"/><linearGradient id="linear-gradient-6" x1="33.34" y1="14.81" x2="46.77" y2="14.81" xlink:href="#linear-gradient-2"/><linearGradient id="linear-gradient-7" x1="56.22" y1="0.5" x2="56.22" y2="29.41" xlink:href="#linear-gradient"/><linearGradient id="linear-gradient-8" x1="50.7" y1="14.95" x2="61.74" y2="14.95" xlink:href="#linear-gradient-2"/><linearGradient id="linear-gradient-9" x1="74.53" y1="0.92" x2="74.53" y2="28.88" xlink:href="#linear-gradient"/><linearGradient id="linear-gradient-10" x1="68.35" y1="14.9" x2="81.78" y2="14.9" xlink:href="#linear-gradient-2"/><linearGradient id="linear-gradient-11" x1="90.62" y1="0.55" x2="90.62" y2="29.25" xlink:href="#linear-gradient"/><linearGradient id="linear-gradient-12" x1="85.54" y1="14.9" x2="95.71" y2="14.9" xlink:href="#linear-gradient-2"/><linearGradient id="linear-gradient-13" x1="117.86" y1="0.92" x2="117.86" y2="28.88" xlink:href="#linear-gradient"/><linearGradient id="linear-gradient-14" x1="113.19" y1="14.9" x2="122.52" y2="14.9" xlink:href="#linear-gradient-2"/><linearGradient id="linear-gradient-15" x1="132.87" y1="0.5" x2="132.87" y2="29.41" xlink:href="#linear-gradient"/><linearGradient id="linear-gradient-16" x1="127.35" y1="14.95" x2="138.39" y2="14.95" xlink:href="#linear-gradient-2"/><linearGradient id="linear-gradient-17" x1="150.2" y1="0.5" x2="150.2" y2="29.41" xlink:href="#linear-gradient"/><linearGradient id="linear-gradient-18" x1="144.68" y1="14.95" x2="155.72" y2="14.95" xlink:href="#linear-gradient-2"/></defs><title>conors-log-logo</title><g id="Layer_2" data-name="Layer 2"><g id="Phone-routine"><path class="cls-1" d="M.5,6.81C.5,2.35,1.37-.62,9.67,1V4.37C4.61,3.22,4,4.37,4,6.5V23.37c0,2.13.66,3.25,5.72,2.13v3.31C1.37,30.49.5,27.49.5,23Z"/><path class="cls-2" d="M21.18,29.41c-2.62,0-5-1.12-5-5.37V5.87c0-4.25,2.37-5.37,5-5.37,2.37,0,5.05,1,5.05,5.37V24C26.23,28.43,23.55,29.41,21.18,29.41Zm-1.54-5.09c0,1.46.53,1.91,1.57,1.91s1.57-.41,1.57-1.91V5.59c0-1.53-.56-1.92-1.57-1.92s-1.57.46-1.57,1.92Z"/><path class="cls-3" d="M43.88,24.25c0,3.69,1.32,4.63,1.32,4.63H41.82s-1.32-.45-1.32-4.63V5.66a1.59,1.59,0,0,0-1.61-1.81c-1,0-1.6.7-1.6,1.81V28.88H33.84V.92h3.45V2.1S37.85.74,40.15.74s3.73,1,3.73,5.62Z"/><path class="cls-4" d="M56.19,29.41c-2.62,0-5-1.12-5-5.37V5.87c0-4.25,2.37-5.37,5-5.37,2.37,0,5.05,1,5.05,5.37V24C61.24,28.43,58.56,29.41,56.19,29.41Zm-1.54-5.09c0,1.46.53,1.91,1.57,1.91s1.57-.41,1.57-1.91V5.59c0-1.53-.55-1.92-1.57-1.92s-1.57.46-1.57,1.92Z"/><path class="cls-5" d="M73.1.92c4.46,0,5.79,1.25,5.79,5.86v5.61c0,3.1-.52,4.95-2.06,6.14h2.06v5.72c0,3.69,1.32,4.63,1.32,4.63H76.83s-1.32-.45-1.32-4.63V20.93H72.3v8H68.85V.92ZM72.3,4.2V17.76h.8c1.74,0,2.41-1.74,2.41-5.4v-6c0-1.74-.42-2.12-2.27-2.12Z"/><path class="cls-6" d="M95.21,23c0,4.46-.84,7.46-9.17,5.79V25.47c5.06,1.11,5.72,0,5.72-2.13V20.9H86V6.81c0-4.46.87-7.46,9.17-5.79V4.34c-5.06-1.12-5.72,0-5.72,2.12V17.8h5.72Z"/><path class="cls-7" d="M122,28.88h-8.33V.92h3.45V25.78H122Z"/><path class="cls-8" d="M132.84,29.41c-2.62,0-5-1.12-5-5.37V5.87c0-4.25,2.37-5.37,5-5.37,2.37,0,5,1,5,5.37V24C137.89,28.43,135.21,29.41,132.84,29.41Zm-1.54-5.09c0,1.46.52,1.91,1.57,1.91s1.57-.41,1.57-1.91V5.59c0-1.53-.56-1.92-1.57-1.92s-1.57.46-1.57,1.92Z"/><path class="cls-9" d="M145.18,6.78c0-4.47.87-7.47,9.17-5.83V4.3c-5.06-1.11-5.72,0-5.72,2.13V24.32c0,1.46.52,1.91,1.57,1.91s1.57-.41,1.57-1.91V20.93H149.5l1.33-3.17h4.39V24c0,4.39-2.68,5.37-5.05,5.37-2.62,0-5-1.12-5-5.37Z"/></g></g></svg>